HIERARCHY
ROOT Hips
{
	OFFSET	0.00	0.00	0.00
	CHANNELS 6 Xposition Yposition Zposition Zrotation Xrotation Yrotation
	JOINT LeftHip
	{
		OFFSET	 3.430000	 0.000000	 0.000000
		CHANNELS 3 Zrotation Xrotation Yrotation
		JOINT LeftKnee
		{
			OFFSET	 0.000000	-18.469999	 0.000000
			CHANNELS 3 Zrotation Xrotation Yrotation
			JOINT LeftAnkle
			{
				OFFSET	 0.000000	-17.950001	 0.000000
				CHANNELS 3 Zrotation Xrotation Yrotation
				End Site 
				{
					OFFSET	 0.000000	-3.119996	 0.000000
				}
			}
		}
	}
	JOINT RightHip
	{
		OFFSET	-3.430000	 0.000000	 0.000000
		CHANNELS 3 Zrotation Xrotation Yrotation
		JOINT RightKnee
		{
			OFFSET	 0.000000	-18.809999	 0.000000
			CHANNELS 3 Zrotation Xrotation Yrotation
			JOINT RightAnkle
			{
				OFFSET	 0.000000	-17.570000	 0.000000
				CHANNELS 3 Zrotation Xrotation Yrotation
				End Site 
				{
					OFFSET	 0.000000	-3.250000	 0.000000
				}
			}
		}
	}
	JOINT Chest
	{
		OFFSET	 0.000000	 4.570000	 0.000000
		CHANNELS 3 Zrotation Xrotation Yrotation
		JOINT LeftCollar
		{
			OFFSET	 1.060000	 15.330000	 1.760000
			CHANNELS 3 Zrotation Xrotation Yrotation
			JOINT LeftShoulder
			{
				OFFSET	 5.810000	 0.000000	 0.000000
				CHANNELS 3 Zrotation Xrotation Yrotation
				JOINT LeftElbow
				{
					OFFSET	 0.000000	-12.080000	 0.000000
					CHANNELS 3 Zrotation Xrotation Yrotation
					JOINT LeftWrist
					{
						OFFSET	 0.000000	-9.820000	 0.000000
						CHANNELS 3 Zrotation Xrotation Yrotation
						End Site 
						{
							OFFSET	 0.000000	-7.369996	 0.000000
						}
					}
				}
			}
		}
		JOINT RightCollar
		{
			OFFSET	-1.060000	 15.330000	 1.760000
			CHANNELS 3 Zrotation Xrotation Yrotation
			JOINT RightShoulder
			{
				OFFSET	-6.060000	 0.000000	 0.000000
				CHANNELS 3 Zrotation Xrotation Yrotation
				JOINT RightElbow
				{
					OFFSET	 0.000000	-11.900000	 0.000000
					CHANNELS 3 Zrotation Xrotation Yrotation
					JOINT RightWrist
					{
						OFFSET	 0.000000	-9.520000	 0.000000
						CHANNELS 3 Zrotation Xrotation Yrotation
						End Site 
						{
							OFFSET	 0.000000	-7.140012	 0.000000
						}
					}
				}
			}
		}
		JOINT Neck
		{
			OFFSET	 0.000000	 17.620001	 0.000000
			CHANNELS 3 Zrotation Xrotation Yrotation
			JOINT Head
			{
				OFFSET	 0.000000	 5.190000	 0.000000
				CHANNELS 3 Zrotation Xrotation Yrotation
				End Site 
				{
					OFFSET	 0.000000	 4.140008	 0.000000
				}
			}
		}
	}
}

MOTION
Frames: 23
Frame Time: 0.033333
-44.02 2.9269 -47.1987 -1.1296 1.58666 62.4781 15.0224 -14.1061 12.8362 -1.08997 14.122 3.69687 -17.3927 3.88966 -2.26622 -13.7208 5.43183 -24.4427 3.10703 6.71124 4.09924 5.53027 -6.85036 -6.36946 6.98614 -1.21784 2.80873 0 0 0 11.8197 11.1576 -2.25229 -69.4437 -43.4586 -46.75 31.948 -22.4254 1.16826 0 0 0 -15.7993 -4.19912 5.76703 47.1348 -54.3792 39.0224 -50.4137 -37.0328 16.885 0 0 0 -1.48004 17.3919 15.4678 
-44.0156 2.9321 -47.2057 -1.14434 1.59981 62.4181 15.0058 -14.0898 12.8219 -1.08581 14.1044 3.7167 -17.3952 3.86521 -2.21715 -13.7392 5.40474 -24.4042 3.11323 6.71707 4.10593 5.52891 -6.85173 -6.35628 6.98739 -1.22617 2.76403 0 0 0 11.7904 11.1425 -2.25177 -69.4169 -43.4812 -46.7287 31.9487 -22.4023 1.146 0 0 0 -15.7789 -4.16554 5.78684 47.1562 -54.3877 39.0552 -50.4438 -37.0411 16.8756 0 0 0 -1.52623 17.432 15.7633 
-44.0127 2.9327 -47.2163 -1.14822 1.60311 62.3654 15.0009 -14.0673 12.8225 -1.09648 14.091 3.73514 -17.3852 3.84991 -2.18584 -13.7584 5.37462 -24.3634 3.11908 6.73177 4.10253 5.53539 -6.84968 -6.34588 6.98727 -1.22471 2.73372 0 0 0 11.769 11.1219 -2.25334 -69.392 -43.4932 -46.7099 31.9549 -22.3897 1.13897 0 0 0 -15.7612 -4.15283 5.79707 47.1617 -54.3838 39.0583 -50.4651 -37.0507 16.8672 0 0 0 -1.58174 17.4223 16.0368 
-44.0081 2.9356 -47.2213 -1.15859 1.61374 62.33 14.9928 -14.0566 12.8227 -1.10087 14.0757 3.7419 -17.3775 3.83949 -2.15674 -13.7779 5.34889 -24.3373 3.12757 6.73438 4.08745 5.54011 -6.84038 -6.32692 6.9811 -1.22694 2.69722 0 0 0 11.7577 11.1082 -2.2566 -69.3689 -43.5011 -46.6932 31.9655 -22.379 1.14191 0 0 0 -15.7485 -4.14666 5.81046 47.1713 -54.3866 39.0676 -50.469 -37.0515 16.8696 0 0 0 -1.6508 17.418 16.2937 
-44.0005 2.9407 -47.2338 -1.17666 1.63037 62.2404 14.9755 -14.0278 12.8156 -1.10918 14.0435 3.77457 -17.3675 3.81495 -2.09555 -13.8127 5.29253 -24.2835 3.12724 6.74711 4.0801 5.55951 -6.83511 -6.28938 6.97921 -1.22353 2.6117 0 0 0 11.7105 11.0728 -2.2389 -69.3022 -43.4957 -46.6544 31.9852 -22.3683 1.13901 0 0 0 -15.7191 -4.1217 5.86392 47.1783 -54.3686 39.0718 -50.5341 -37.0833 16.8421 0 0 0 -1.77204 17.4153 16.8993 
-43.9955 2.9407 -47.2464 -1.18894 1.64109 62.1687 14.9584 -13.9988 12.81 -1.1126 14.0094 3.79143 -17.3545 3.79983 -2.02806 -13.8671 5.20859 -24.2079 3.14623 6.79 4.04532 5.56556 -6.81925 -6.26258 6.97122 -1.23956 2.5603 0 0 0 11.6745 11.0438 -2.23369 -69.2694 -43.493 -46.6249 31.9962 -22.3439 1.11341 0 0 0 -15.6896 -4.10559 5.88876 47.2028 -54.3289 39.1044 -50.5986 -37.09 16.8099 0 0 0 -1.92662 17.3996 17.5019 
-43.9854 2.9432 -47.259 -1.20206 1.64797 62.1027 14.9567 -13.9639 12.8376 -1.12098 13.9802 3.7962 -17.338 3.7846 -1.99916 -13.9224 5.08806 -24.1256 3.15306 6.88545 3.99939 5.57108 -6.81529 -6.23856 6.96493 -1.23021 2.52438 0 0 0 11.6726 11.0275 -2.24986 -69.2578 -43.5167 -46.6093 32.0033 -22.3116 1.1018 0 0 0 -15.6691 -4.10053 5.92843 47.2371 -54.3025 39.1408 -50.633 -37.084 16.7944 0 0 0 -2.08883 17.3711 18.0065 
-43.9779 2.9407 -47.2665 -1.22026 1.65359 62.0498 14.9676 -13.9515 12.8796 -1.13088 13.9631 3.80241 -17.3271 3.77612 -1.99473 -13.9556 5.00528 -24.0731 3.16029 6.94441 3.97622 5.57866 -6.81245 -6.21958 6.96143 -1.22613 2.50477 0 0 0 11.6701 11.0033 -2.26252 -69.2307 -43.5403 -46.567 32.0098 -22.2767 1.09482 0 0 0 -15.6581 -4.11725 5.95382 47.2365 -54.2898 39.1382 -50.6062 -37.0625 16.8084 0 0 0 -2.26694 17.2755 18.5014 
-43.9729 2.9382 -47.274 -1.24043 1.66312 61.9964 14.9795 -13.9445 12.9313 -1.14058 13.9466 3.80389 -17.3152 3.77294 -1.98671 -13.9928 4.90216 -24.005 3.16649 7.00559 3.93684 5.5865 -6.80199 -6.20535 6.95913 -1.21663 2.51497 0 0 0 11.6656 10.9768 -2.27107 -69.2059 -43.5462 -46.5352 32.0216 -22.2497 1.09591 0 0 0 -15.6559 -4.13993 5.98016 47.2263 -54.2846 39.1212 -50.5516 -37.0281 16.8331 0 0 0 -2.44578 17.1674 19.031 
-43.9654 2.9382 -47.2765 -1.27056 1.67738 61.9496 14.989 -13.9432 12.9764 -1.13758 13.9214 3.80028 -17.3158 3.76945 -1.98039 -14.0225 4.79325 -23.9495 3.16569 7.05995 3.90354 5.59036 -6.78773 -6.19267 6.96006 -1.21671 2.53027 0 0 0 11.6627 10.9593 -2.27797 -69.183 -43.549 -46.506 32.0367 -22.2233 1.09775 0 0 0 -15.6554 -4.15377 6.01756 47.2004 -54.2995 39.1026 -50.4729 -36.9914 16.8603 0 0 0 -2.62354 17.0753 19.5129 
-43.9604 2.9356 -47.2816 -1.30364 1.68796 61.8988 15.0054 -13.9473 13.0272 -1.14027 13.9021 3.80666 -17.3132 3.76836 -1.97637 -14.0453 4.67674 -23.8916 3.15886 7.1243 3.89209 5.59413 -6.78279 -6.19815 6.96668 -1.21968 2.56708 0 0 0 11.6557 10.936 -2.27636 -69.1664 -43.5463 -46.479 32.0616 -22.1958 1.09484 0 0 0 -15.6542 -4.16585 6.05055 47.1666 -54.3069 39.0679 -50.3984 -36.9666 16.8833 0 0 0 -2.77862 16.9482 19.9767 
-43.9553 2.9356 -47.2841 -1.35078 1.70889 61.8557 15.0162 -13.9648 13.0742 -1.13415 13.8836 3.81027 -17.3141 3.76338 -1.97205 -14.0646 4.55506 -23.8448 3.15845 7.18066 3.88179 5.58842 -6.77196 -6.19801 6.97279 -1.22233 2.6137 0 0 0 11.6572 10.9133 -2.28026 -69.1624 -43.5464 -46.4633 32.1089 -22.1683 1.10413 0 0 0 -15.661 -4.18807 6.05703 47.1493 -54.3316 39.0538 -50.292 -36.9212 16.9204 0 0 0 -2.91724 16.8301 20.4061 
-43.9528 2.9356 -47.2791 -1.39987 1.72652 61.8226 15.031 -13.99 13.1124 -1.13679 13.8597 3.81606 -17.3137 3.76639 -1.96725 -14.0602 4.46465 -23.8241 3.15045 7.20077 3.88771 5.58131 -6.77408 -6.20287 6.98211 -1.21876 2.68311 0 0 0 11.6507 10.8642 -2.29516 -69.1367 -43.5466 -46.4386 32.1621 -22.128 1.13091 0 0 0 -15.6698 -4.22477 6.04368 47.1199 -54.3532 39.0257 -50.1715 -36.8795 16.9588 0 0 0 -3.01895 16.6644 20.6769 
-43.9503 2.9356 -47.274 -1.44567 1.74461 61.7924 15.0481 -14.0151 13.1521 -1.13136 13.8447 3.81705 -17.325 3.76489 -1.96594 -14.0381 4.42203 -23.8144 3.14148 7.17274 3.90974 5.57826 -6.76116 -6.21831 6.99446 -1.2085 2.76041 0 0 0 11.648 10.8113 -2.32356 -69.1225 -43.5587 -46.4045 32.2238 -22.0994 1.15064 0 0 0 -15.6832 -4.25548 6.02166 47.087 -54.3753 38.9871 -50.0585 -36.8552 16.9854 0 0 0 -3.10543 16.5239 20.9027 
-43.9503 2.9331 -47.269 -1.48144 1.75716 61.7805 15.0584 -14.0354 13.1781 -1.12978 13.8256 3.81478 -17.3256 3.7697 -1.96165 -14.0567 4.31074 -23.7508 3.14759 7.24678 3.8629 5.56891 -6.77049 -6.22709 7.01321 -1.18124 2.84571 0 0 0 11.6472 10.7529 -2.35447 -69.1178 -43.5699 -46.3798 32.2746 -22.0809 1.15783 0 0 0 -15.6974 -4.28145 6.00662 47.0733 -54.3578 38.9719 -50.0122 -36.864 16.9638 0 0 0 -3.17624 16.3781 21.0588 
-43.9428 2.9331 -47.2615 -1.52937 1.78276 61.7904 15.0646 -14.0724 13.194 -1.13331 13.8032 3.80968 -17.3225 3.77838 -1.96457 -14.0704 4.21089 -23.7302 3.14929 7.29709 3.83652 5.56144 -6.78199 -6.21385 7.0211 -1.14 2.93788 0 0 0 11.6527 10.655 -2.39827 -69.1025 -43.5693 -46.3466 32.3493 -22.0695 1.18051 0 0 0 -15.7065 -4.32487 5.97437 47.0743 -54.3186 38.9779 -50.0072 -36.8849 16.9153 0 0 0 -3.21953 16.2206 21.1452 
-43.9378 2.9306 -47.2515 -1.56913 1.81071 61.8205 15.06 -14.1173 13.1823 -1.13699 13.7896 3.81913 -17.3231 3.78528 -1.96669 -14.071 4.14147 -23.7173 3.14853 7.32801 3.8022 5.55054 -6.79267 -6.22678 7.02795 -1.09717 3.02365 0 0 0 11.6505 10.5583 -2.4378 -69.0863 -43.5862 -46.3054 32.415 -22.0525 1.18662 0 0 0 -15.7225 -4.37258 5.91578 47.0946 -54.2489 38.9991 -50.0232 -36.9166 16.857 0 0 0 -3.24378 16.0704 21.2107 
-43.9328 2.9356 -47.2364 -1.62944 1.86357 61.8778 15.0431 -14.1941 13.1632 -1.13827 13.7756 3.81489 -17.3286 3.79245 -1.97563 -14.0571 4.11881 -23.6947 3.15724 7.29014 3.72364 5.54124 -6.81102 -6.23769 7.023 -1.06961 3.12004 0 0 0 11.6634 10.4587 -2.50616 -69.0582 -43.6104 -46.2499 32.4824 -22.0498 1.20203 0 0 0 -15.7408 -4.40415 5.84763 47.1385 -54.1851 39.0376 -50.0324 -36.9648 16.8 0 0 0 -3.2514 15.951 21.2096 
-43.9277 2.9306 -47.2188 -1.668 1.90111 61.9495 15.0282 -14.2558 13.1328 -1.13429 13.7698 3.80439 -17.3394 3.79902 -1.98787 -14.0341 4.14269 -23.6758 3.16424 7.23433 3.66512 5.53693 -6.83293 -6.28119 7.0183 -1.02031 3.19231 0 0 0 11.6605 10.356 -2.52587 -69.0271 -43.6312 -46.183 32.5273 -22.0652 1.19374 0 0 0 -15.7546 -4.45057 5.80246 47.1688 -54.1261 39.0669 -50.0338 -37.0236 16.7478 0 0 0 -3.24981 15.8121 21.2112 
-43.9252 2.9231 -47.1987 -1.69539 1.93855 62.0506 14.9998 -14.3149 13.076 -1.1251 13.7734 3.79971 -17.3541 3.80205 -2.01714 -14.0053 4.20308 -23.6649 3.17489 7.14922 3.58632 5.53244 -6.83535 -6.31628 7.011 -0.982334 3.23368 0 0 0 11.6576 10.2819 -2.52152 -69.0047 -43.6639 -46.1149 32.5679 -22.0862 1.18572 0 0 0 -15.7625 -4.53018 5.93611 46.9702 -54.1913 38.8182 -49.9927 -37.0784 16.7198 0 0 0 -3.25074 15.7201 21.2099 
-43.9202 2.9181 -47.1736 -1.74267 1.9961 62.187 14.9715 -14.3954 12.9853 -1.14083 13.7605 3.80249 -17.3643 3.80989 -2.04031 -13.982 4.25533 -23.6907 3.18749 7.07854 3.52168 5.52523 -6.8697 -6.36528 6.98676 -0.97011 3.27807 0 0 0 11.665 10.2154 -2.50351 -68.9882 -43.6779 -46.056 32.5929 -22.1197 1.16787 0 0 0 -15.77 -4.60824 6.05755 46.7897 -54.2613 38.6092 -49.9622 -37.1176 16.6847 0 0 0 -3.23957 15.599 21.1847 
-43.9152 2.903 -47.1435 -1.76625 2.03466 62.3322 14.9403 -14.4503 12.8888 -1.14556 13.7494 3.79768 -17.375 3.81461 -2.07219 -13.9362 4.36996 -23.7308 3.19624 6.96226 3.4941 5.50946 -6.90044 -6.44478 6.94745 -0.984354 3.31139 0 0 0 11.6723 10.1819 -2.48912 -68.9734 -43.7091 -45.9964 32.6125 -22.1608 1.15827 0 0 0 -15.7828 -4.6777 6.08625 46.7315 -54.2683 38.5167 -49.9192 -37.1529 16.6718 0 0 0 -3.21155 15.515 21.12 
-43.9076 2.8904 -47.1108 -1.7861 2.07612 62.4599 14.9122 -14.4778 12.8026 -1.15796 13.7199 3.79473 -17.3909 3.81985 -2.09816 -13.8964 4.48465 -23.7431 3.17207 7.01475 3.56341 5.51194 -7.10888 -6.63352 6.90659 -1.01544 3.37533 0 0 0 11.6894 10.1897 -2.4776 -68.9811 -43.7467 -45.9531 32.6279 -22.212 1.13158 0 0 0 -15.8046 -4.74394 6.13088 46.6249 -54.3222 38.3835 -49.8537 -37.1717 16.6437 0 0 0 -3.17996 15.4456 21.0697 
